<svg width="23" height="22" viewBox="0 0 23 22" fill="none" xmlns="http://www.w3.org/2000/svg">
<path d="M21.337 2.22543C21.0641 2.00831 20.7348 1.866 20.3841 1.81367C20.0334 1.76134 19.6745 1.80093 19.3454 1.92824L2.17124 8.56065C1.80396 8.70519 1.49132 8.95315 1.27481 9.27163C1.05831 9.5901 0.948181 9.96403 0.959046 10.3438C0.969911 10.7235 1.10126 11.0911 1.33565 11.3978C1.57004 11.7045 1.89639 11.9357 2.27138 12.0608L5.74534 13.2165L7.68165 19.3413C7.70797 19.4231 7.74615 19.501 7.7951 19.5727C7.80253 19.5837 7.813 19.5919 7.8209 19.6026C7.87745 19.678 7.94578 19.7447 8.02352 19.8003C8.04563 19.8165 8.0668 19.8316 8.09043 19.8459C8.18141 19.9036 8.28216 19.9458 8.38821 19.9706L8.39956 19.9716L8.40599 19.9742C8.46975 19.9866 8.53465 19.9929 8.59972 19.993C8.60598 19.993 8.61153 19.9901 8.61773 19.99C8.71593 19.9884 8.81326 19.9722 8.90628 19.9421C8.92792 19.935 8.94646 19.9232 8.96746 19.9147C9.03682 19.8872 9.10254 19.852 9.16324 19.8097C9.21185 19.7705 9.26047 19.7314 9.30911 19.6922L11.8987 16.9574L15.761 19.8193C16.1011 20.0725 16.5196 20.2102 16.9505 20.2105C17.4021 20.21 17.8397 20.0609 18.19 19.7884C18.5403 19.5159 18.7821 19.1365 18.8747 18.7138L22.0014 4.03192C22.0723 3.70148 22.0479 3.35883 21.9308 3.04062C21.8138 2.72242 21.6085 2.44064 21.337 2.22543ZM8.97972 13.5083C8.84684 13.6349 8.756 13.7962 8.71861 13.972L8.42199 15.3507L7.6706 12.9737L11.5665 11.0332L8.97972 13.5083ZM16.9356 18.37L12.3713 14.988C12.1804 14.8469 11.9408 14.7797 11.7004 14.8C11.46 14.8202 11.2364 14.9264 11.0742 15.0972L10.2448 15.9728L10.5379 14.6103L17.3258 8.1175C17.4878 7.96273 17.5865 7.75758 17.6041 7.5392C17.6216 7.32082 17.5568 7.10365 17.4214 6.92704C17.2859 6.75043 17.0889 6.62605 16.8658 6.57643C16.6428 6.52682 16.4086 6.55524 16.2056 6.65656L6.46385 11.5081L2.89467 10.2588L20.1241 3.66576L16.9356 18.37Z" fill="white"/>
</svg>
