<svg width="28" height="28" viewBox="0 0 28 28" fill="none" xmlns="http://www.w3.org/2000/svg">
<g clip-path="url(#clip0_206_253)">
<path d="M6.18734 0.86723C1.83027 3.19014 2.70894 8.77318 3.55216 10.8814C3.55216 10.8814 4.20841 13.9877 4.59298 17.59C4.99777 21.382 5.69362 23.4958 8.75847 23.406C11.4309 23.3277 12.9595 21.7937 12.5122 17.1004C12.3013 14.8871 12.4068 11.9356 12.9336 7.61353C13.4605 3.29147 11.8238 -2.13774 6.18734 0.86723ZM11.331 12.8539C11.0059 12.8682 10.7304 12.6158 10.7162 12.2907C10.6112 9.9056 10.0627 8.14362 9.43911 6.83938C8.87129 5.65539 8.24725 4.8563 7.79827 4.30002C7.79455 4.30046 7.79181 4.29865 7.78815 4.29865C7.74254 4.37877 7.69556 4.46167 7.64585 4.55147C7.42388 4.9508 7.16646 5.44217 6.92004 6.03624C6.42774 7.22438 5.97963 8.81737 5.9792 10.8755C5.9792 11.4939 6.01977 12.1543 6.11274 12.8585C6.15556 13.1814 5.92806 13.4775 5.60568 13.5203C5.28292 13.5631 4.98673 13.3356 4.94391 13.0132C4.84399 12.2579 4.80019 11.5455 4.80019 10.8754C4.79702 7.52921 5.911 5.24174 6.61559 3.97851C6.84818 3.56217 7.03745 3.24395 7.09777 3.10351C7.10696 3.08328 7.12402 3.07037 7.13463 3.0515L7.07016 2.06642C7.0485 1.7413 7.29492 1.46081 7.61955 1.43964C7.94472 1.41799 8.22516 1.66441 8.24632 1.98909L8.31588 3.05014C8.36838 3.12659 8.46004 3.244 8.58019 3.39182C8.70783 3.54927 8.86435 3.74139 9.03798 3.96653C9.38524 4.41743 9.80021 5.00319 10.2031 5.74464C11.0109 7.22711 11.768 9.33542 11.8942 12.2391C11.9085 12.5642 11.6561 12.8396 11.331 12.8539Z" fill="#4DACB8"/>
<path d="M22.1539 5.62258C16.6989 2.29988 14.754 7.62639 15.0327 11.9715C15.3113 16.3166 15.2478 19.2695 14.9107 21.4672C14.1955 26.1273 15.6337 27.746 18.2974 27.9772C21.3521 28.2425 22.1677 26.1719 22.7889 22.4089C23.3789 18.8348 24.2119 15.7713 24.2119 15.7713C25.1745 13.7146 26.3709 8.19098 22.1539 5.62258ZM22.8889 17.8198C22.8281 18.1393 22.5195 18.3493 22.1995 18.2882C21.8799 18.2273 21.6699 17.9188 21.7311 17.5987C21.9222 16.5962 22.0005 15.6779 22.0005 14.8406C21.9987 12.1207 21.1803 10.2537 20.6373 9.1374C20.606 9.07337 20.5775 9.01578 20.5484 8.95683C20.5447 8.95639 20.5415 8.95776 20.5383 8.95776C20.4356 9.07014 20.3283 9.18985 20.2109 9.32526C19.8646 9.72546 19.4598 10.233 19.0559 10.8837C18.2499 12.1847 17.444 14.0535 17.1672 16.7678C17.1345 17.0916 16.8454 17.3278 16.5216 17.2951C16.1974 17.262 15.9616 16.9728 15.9947 16.649C16.2504 14.1188 16.9527 12.2242 17.7222 10.8293C18.489 9.43616 19.329 8.53491 19.8093 8.00625C19.9378 7.86488 20.0359 7.75392 20.0925 7.68064L20.2229 6.62462C20.2624 6.30186 20.5567 6.07206 20.88 6.11209C21.2029 6.15169 21.4327 6.44596 21.3926 6.76927L21.2715 7.74927C21.2816 7.76863 21.2977 7.78241 21.3056 7.80319C21.3543 7.93674 21.5073 8.23424 21.6966 8.62066C21.8868 9.01069 22.1166 9.50441 22.3367 10.0971C22.7774 11.2825 23.1799 12.8677 23.1795 14.8406C23.1795 15.7515 23.0943 16.7454 22.8889 17.8198Z" fill="#4DACB8"/>
</g>
<defs>
<clipPath id="clip0_206_253">
<rect width="28" height="28" fill="white"/>
</clipPath>
</defs>
</svg>
