<svg width="24" height="24" viewBox="0 0 24 24" fill="none" xmlns="http://www.w3.org/2000/svg">
<path d="M17.496 0H6.50276C4.74747 0 3.32227 1.42364 3.32227 3.1805V14.653C3.32227 16.4094 4.74642 17.8335 6.50276 17.8335H10.9291V21.2951C9.96903 21.6048 9.17273 22.3318 8.78371 23.2663C8.71592 23.4285 8.73573 23.6167 8.83325 23.7627C8.93129 23.9093 9.0966 24 9.27233 24H14.7035C14.8793 24 15.042 23.9093 15.1405 23.7627C15.238 23.6172 15.2532 23.4305 15.1854 23.2684C14.7969 22.3339 14.0303 21.6048 13.0343 21.2956V17.834H17.4971C19.2529 17.834 20.6781 16.4104 20.6781 14.6541V3.1805C20.6771 1.42364 19.2529 0 17.496 0ZM19.3478 14.1738C19.3478 15.4347 18.3179 16.4678 17.0554 16.4678H6.91473C5.65275 16.4678 4.61501 15.4347 4.61501 14.1738V3.64148C4.61501 2.37951 5.65275 1.36627 6.91473 1.36627H17.0554C18.3179 1.36627 19.3478 2.37951 19.3478 3.64148V14.1738Z" fill="#4DACB8"/>
<path d="M17.0558 2.40039H6.91464C6.23202 2.40039 5.68604 2.95994 5.68604 3.64203V14.1738C5.68604 14.8564 6.23254 15.3972 6.91464 15.3972H17.0553C17.7374 15.3972 18.2771 14.8554 18.2771 14.1738V3.64151C18.2771 2.95942 17.7374 2.40039 17.0558 2.40039ZM14.4782 9.07062C13.8211 9.68805 12.8412 9.96495 11.706 9.96495C11.4541 9.96495 11.2247 9.95244 11.0406 9.92741V12.9603H9.157V4.58643C9.74835 4.48578 10.5806 4.41017 11.7545 4.41017C12.9408 4.41017 13.7851 4.63701 14.3525 5.09018C14.8959 5.51831 15.2609 6.22387 15.2609 7.05615C15.2614 7.88739 14.9824 8.5919 14.4782 9.07062Z" fill="#4DACB8"/>
<path d="M11.8442 5.85828C11.4536 5.85828 11.1876 5.89634 11.04 5.93389V8.44116C11.2246 8.47871 11.415 8.49122 11.6929 8.49122C12.7155 8.49122 13.346 7.97444 13.346 7.10565C13.3465 6.32448 12.8026 5.85828 11.8442 5.85828Z" fill="#4DACB8"/>
</svg>
