<svg width="24" height="24" viewBox="0 0 24 24" fill="none" xmlns="http://www.w3.org/2000/svg">
<g clip-path="url(#clip0_206_641)">
<path fill-rule="evenodd" clip-rule="evenodd" d="M16.5 0.000244141C18.9853 0.000244141 21 2.01496 21 4.50024V19.5002C21 21.9855 18.9853 24.0002 16.5 24.0002H7.5C5.01472 24.0002 3 21.9855 3 19.5002V4.50024C3 2.01496 5.01472 0.000244141 7.5 0.000244141H16.5ZM7.5 15.0002C7.08579 15.0002 6.75 15.336 6.75 15.7502V17.2502C6.75 17.6645 7.08579 18.0002 7.5 18.0002C7.91421 18.0002 8.25 17.6645 8.25 17.2502V15.7502C8.25 15.336 7.91421 15.0002 7.5 15.0002ZM18.75 11.2502H5.25C4.83579 11.2502 4.5 11.586 4.5 12.0002C4.5 12.4145 4.83579 12.7502 5.25 12.7502H18.75C19.1642 12.7502 19.5 12.4145 19.5 12.0002C19.5 11.586 19.1642 11.2502 18.75 11.2502ZM7.5 6.00024C7.08579 6.00024 6.75 6.33603 6.75 6.75024V8.25024C6.75 8.66446 7.08579 9.00024 7.5 9.00024C7.91421 9.00024 8.25 8.66446 8.25 8.25024V6.75024C8.25 6.33603 7.91421 6.00024 7.5 6.00024Z" fill="#4DACB8"/>
</g>
<defs>
<clipPath id="clip0_206_641">
<rect width="24" height="24" fill="white" transform="translate(0 0.000244141)"/>
</clipPath>
</defs>
</svg>
