<svg width="24" height="24" viewBox="0 0 24 24" fill="none" xmlns="http://www.w3.org/2000/svg">
<path d="M8.66498 0C5.06099 0 2.12891 2.93208 2.12891 6.53603V24H4.55324V6.53603C4.55324 4.26887 6.39777 2.42438 8.66498 2.42438C10.3137 2.42438 11.7381 3.40027 12.393 4.80437C12.9062 4.68657 13.4404 4.62423 13.9889 4.62423C14.3094 4.62423 14.6249 4.64584 14.9343 4.68704C14.1347 1.98071 11.627 0 8.66498 0Z" fill="#4DACB8"/>
<path d="M13.9892 6.07886C10.858 6.07886 8.31055 8.62628 8.31055 11.7575V12.4848H19.6678V11.7575C19.6679 8.62628 17.1204 6.07886 13.9892 6.07886Z" fill="#4DACB8"/>
<path d="M8.15836 13.3772L8.04 13.9393L6.10645 23.1228L7.52985 23.4225L9.5265 13.9393L9.58172 13.6769L8.15836 13.3772Z" fill="#4DACB8"/>
<path d="M10.7408 13.9394L10.7066 13.9358L10.7063 13.9394L9.68066 23.6815L11.1273 23.8337L12.1532 14.0881L10.7408 13.9394Z" fill="#4DACB8"/>
<path d="M14.7163 14.2543H13.2617V23.9997H14.7163V14.2543Z" fill="#4DACB8"/>
<path d="M17.2722 13.9394L17.2718 13.9358L17.2376 13.9394L15.8252 14.0881L16.8512 23.8337L18.2978 23.6815L17.2722 13.9394Z" fill="#4DACB8"/>
<path d="M19.9372 13.9393L19.8189 13.3772L18.3955 13.6769L18.4507 13.9393L20.4474 23.4225L21.8709 23.1228L19.9372 13.9393Z" fill="#4DACB8"/>
</svg>
