<svg width="26" height="26" viewBox="0 0 26 26" fill="none" xmlns="http://www.w3.org/2000/svg">
<path d="M20.5868 8.67104C21.7846 8.67104 22.7556 7.70002 22.7556 6.50221C22.7556 5.30439 21.7846 4.33337 20.5868 4.33337C19.389 4.33337 18.418 5.30439 18.418 6.50221C18.418 7.70002 19.389 8.67104 20.5868 8.67104Z" fill="#4DACB8"/>
<path d="M20.4478 14.3206C19.8335 14.8114 19.3883 15.1667 18.4133 15.1667C17.4393 15.1667 17.0179 14.8298 16.3809 14.3206C15.6443 13.7324 14.7288 13 12.9933 13C11.2589 13 10.3446 13.7324 9.609 14.3206C8.972 14.8298 8.55275 15.1667 7.57775 15.1667C6.60492 15.1667 6.18459 14.8298 5.54867 14.3217C4.81309 13.7324 3.89984 13 2.1665 13V15.1667C3.13825 15.1667 3.55859 15.5036 4.1945 16.0117C4.93009 16.601 5.84442 17.3334 7.57775 17.3334C9.31109 17.3334 10.2276 16.601 10.9632 16.0117C11.5991 15.5025 12.0205 15.1667 12.9933 15.1667C13.9683 15.1667 14.4136 15.522 15.0278 16.0128C15.7634 16.601 16.6788 17.3334 18.4133 17.3334C20.1488 17.3334 21.0642 16.601 21.8008 16.0128C22.4378 15.5036 22.8593 15.1667 23.8332 15.1667V13C22.0988 13 21.1833 13.7324 20.4478 14.3206ZM18.4133 20.5834C17.4393 20.5834 17.0179 20.2465 16.3809 19.7373C15.6443 19.149 14.7288 18.4167 12.9933 18.4167C11.2589 18.4167 10.3446 19.149 9.609 19.7373C8.972 20.2465 8.55275 20.5834 7.57775 20.5834C6.60492 20.5834 6.18459 20.2465 5.54867 19.7384C4.81309 19.149 3.89984 18.4167 2.1665 18.4167V20.5834C3.13825 20.5834 3.55859 20.9203 4.1945 21.4284C4.93009 22.0177 5.84442 22.75 7.57775 22.75C9.31109 22.75 10.2276 22.0177 10.9632 21.4284C11.5991 20.9192 12.0205 20.5834 12.9933 20.5834C13.9683 20.5834 14.4136 20.9387 15.0278 21.4295C15.7634 22.0177 16.6788 22.75 18.4133 22.75C20.1488 22.75 21.0642 22.0177 21.8008 21.4295C22.4378 20.9203 22.8593 20.5834 23.8332 20.5834V18.4167C22.0988 18.4167 21.1833 19.149 20.4478 19.7373C19.8335 20.228 19.3883 20.5834 18.4133 20.5834ZM11.9165 5.87063L14.1958 8.14997L11.9674 10.9341C12.2773 10.8735 12.6131 10.8334 12.9933 10.8334C14.7288 10.8334 15.6443 11.5657 16.3809 12.154C17.0179 12.6631 17.4393 13 18.4133 13C19.3883 13 19.8335 12.6447 20.4478 12.154C20.5908 12.0402 20.7446 11.9189 20.906 11.8008L18.6353 9.53663L18.6408 9.53122L12.6824 3.57288C12.5819 3.47219 12.4625 3.39231 12.3311 3.33781C12.1997 3.2833 12.0588 3.25525 11.9165 3.25525C11.7742 3.25525 11.6333 3.2833 11.5019 3.33781C11.3705 3.39231 11.2511 3.47219 11.1506 3.57288L6.81725 7.90622L8.34909 9.43805L11.9165 5.87063Z" fill="#4DACB8"/>
</svg>
