<svg width="24" height="24" viewBox="0 0 24 24" fill="none" xmlns="http://www.w3.org/2000/svg">
<path d="M12 20.253C11.3628 20.253 10.7344 20.1461 10.1367 19.9483V24H13.8633V19.9482C13.2656 20.146 12.6372 20.253 12 20.253Z" fill="#4DACB8"/>
<path d="M19.677 9.30178C19.8462 8.8455 19.9436 8.35402 19.9436 7.83839C19.9436 5.85938 18.5776 4.20263 16.7371 3.75C16.2295 1.60106 14.304 0 11.9998 0C9.69557 0 7.77004 1.60106 7.26243 3.75C5.42259 4.20263 4.0559 5.85938 4.0559 7.83839C4.0559 8.35402 4.15261 8.84475 4.32178 9.30178C3.1155 10.188 2.32959 11.6133 2.32959 13.2261C2.32959 15.917 4.51003 18.0982 7.20168 18.0982C7.88357 18.0982 8.53251 17.9576 9.12136 17.7042C9.71826 18.211 10.45 18.5611 11.2542 18.6974V16.3551L7.87772 12.9771C7.5862 12.6863 7.5862 12.2146 7.87772 11.9239C8.16848 11.6324 8.64018 11.6324 8.93095 11.9239L11.2542 14.2464V11.688L8.93831 9.37214C8.72226 9.15534 8.72226 8.80523 8.93831 8.58919C9.15436 8.37314 9.50522 8.37314 9.72056 8.58919L11.2543 10.1221V7.3133C11.2543 6.90169 11.5882 6.56841 11.9999 6.56841C12.4115 6.56841 12.7454 6.90164 12.7454 7.3133V10.1221L14.2792 8.58919C14.4945 8.37314 14.8453 8.37314 15.0614 8.58919C15.2775 8.80523 15.2775 9.15534 15.0614 9.37214L12.7455 11.688V14.2464L15.0688 11.9239C15.3595 11.6324 15.8312 11.6324 16.122 11.9239C16.4135 12.2146 16.4135 12.6863 16.122 12.9771L12.7455 16.3551V18.6974C13.5497 18.5611 14.2815 18.211 14.8784 17.7049C15.4672 17.9576 16.1154 18.0983 16.7973 18.0983C19.489 18.0983 21.6701 15.9171 21.6701 13.2262C21.6699 11.6133 20.884 10.188 19.677 9.30178Z" fill="#4DACB8"/>
</svg>
